<svg height="56" viewBox="0 0 56 56" width="56" xmlns="http://www.w3.org/2000/svg"><path d="m12.1797 44.4648c-1.2187 0-2.0391.8672-2.0391 2.086 0 1.2187.8204 2.1094 2.0391 2.1094h31.5937c1.2422 0 2.086-.8907 2.086-2.1094 0-1.2188-.8438-2.086-2.086-2.086h-15.2812c.3984-.1171.75-.3281 1.0781-.6796l15.5156-15.5157c.4688-.4922.6797-1.0078.6797-1.5703 0-1.1719-.8437-2.0625-2.039-2.0625-.5625 0-1.1016.2109-1.5.586l-5.25 5.1797-7.0547 7.7109.1875-5.0157v-23.6718c0-1.2187-.8906-2.086-2.1094-2.086s-2.0859.8673-2.0859 2.086v23.6718l.164 5.0391-7.0547-7.7343-5.25-5.1797c-.375-.3751-.9375-.586-1.5-.586-1.1718 0-2.039.8906-2.039 2.0625 0 .5625.2344 1.0781.7031 1.5703l15.4922 15.5157c.3281.3515.7031.5625 1.1015.6796z"/></svg>